<svg xmlns="http://www.w3.org/2000/svg" viewBox="-100.00 -100.00 200.00 200.00" role="img" aria-label="DrQuick"><title>DrQuick</title><path fill="#163300" d="M-100.0 0.0C-100.0 -55.22847366333008 -55.22847366333008 -100.0 0.0 -100.0C55.22847366333008 -100.0 100.0 -55.22847366333008 100.0 0.0C100.0 55.22847366333008 55.22847366333008 100.0 0.0 100.0C-55.22847366333008 100.0 -100.0 55.22847366333008 -100.0 0.0ZM-37.0 -21.0C-48.59798049926758 -21.0 -58.0 -11.597979545593262 -58.0 0.0C-58.0 11.597979545593262 -48.59798049926758 21.0 -37.0 21.0H-21.0V37.0C-21.0 48.59798049926758 -11.597979545593262 58.0 0.0 58.0C11.597979545593262 58.0 21.0 48.59798049926758 21.0 37.0V21.0H37.0C48.59798049926758 21.0 58.0 11.597979545593262 58.0 0.0C58.0 -11.597979545593262 48.59798049926758 -21.0 37.0 -21.0H21.0V-37.0C21.0 -48.59798049926758 11.597979545593262 -58.0 0.0 -58.0C-11.597979545593262 -58.0 -21.0 -48.59798049926758 -21.0 -37.0V-21.0Z"/></svg>
