<svg xmlns="http://www.w3.org/2000/svg" viewBox="0 0 256 256" role="img" aria-label="DrQuick"><title>DrQuick</title><rect width="256" height="256" rx="48" fill="#163300"/><path fill="#9FE870" d="M62.720001220703125 85.76000213623047H85.76000213623047V62.720001220703125C85.76000213623047 39.3914909362793 104.67149353027344 20.479999542236328 128.0 20.479999542236328C151.32850646972656 20.479999542236328 170.24000549316406 39.3914909362793 170.24000549316406 62.720001220703125V85.76000213623047H193.27999877929688C216.60850524902344 85.76000213623047 235.52000427246094 104.67149353027344 235.52000427246094 128.0C235.52000427246094 151.32850646972656 216.60850524902344 170.24000549316406 193.27999877929688 170.24000549316406H170.24000549316406V193.27999877929688C170.24000549316406 216.60850524902344 151.32850646972656 235.52000427246094 128.0 235.52000427246094C104.67149353027344 235.52000427246094 85.76000213623047 216.60850524902344 85.76000213623047 193.27999877929688V170.24000549316406H62.720001220703125C39.3914909362793 170.24000549316406 20.479999542236328 151.32850646972656 20.479999542236328 128.0C20.479999542236328 104.67149353027344 39.3914909362793 85.76000213623047 62.720001220703125 85.76000213623047Z"/><path fill="#163300" d="M158.72000122070312 128.0C158.72000122070312 109.97342681884766 173.33343505859375 95.36000061035156 191.36000061035156 95.36000061035156C209.38656616210938 95.36000061035156 224.0 109.97342681884766 224.0 128.0C224.0 146.0265655517578 209.38656616210938 160.63999938964844 191.36000061035156 160.63999938964844C173.33343505859375 160.63999938964844 158.72000122070312 146.0265655517578 158.72000122070312 128.0Z"/></svg>
